<?xml version="1.0" standalone="no"?>
<!DOCTYPE svg PUBLIC "-//W3C//DTD SVG 20010904//EN"
 "http://www.w3.org/TR/2001/REC-SVG-20010904/DTD/svg10.dtd">
<svg version="1.0" xmlns="http://www.w3.org/2000/svg"
 width="512.000000pt" height="512.000000pt" viewBox="0 0 512.000000 512.000000"
 preserveAspectRatio="xMidYMid meet">
<metadata>
Created by potrace 1.11, written by Peter Selinger 2001-2013
</metadata>
<g transform="translate(0.000000,512.000000) scale(0.100000,-0.100000)"
fill="#000000" stroke="none">
<path d="M2765 4069 c-408 -59 -768 -322 -948 -691 -40 -82 -84 -208 -102
-290 -5 -28 -6 -28 -83 -28 -297 -1 -625 -181 -797 -440 -46 -70 -108 -194
-120 -241 -6 -25 -9 -26 -104 -32 -170 -9 -301 -68 -427 -193 -58 -57 -81 -90
-117 -165 -54 -113 -67 -169 -67 -297 0 -118 17 -191 70 -297 74 -150 210
-267 373 -322 l82 -28 1905 0 1905 0 82 22 c103 27 236 89 316 147 136 97 268
266 326 416 79 203 83 458 12 663 -116 335 -445 590 -792 614 l-86 6 -11 87
c-25 183 -105 389 -214 547 -105 154 -293 316 -466 402 -96 49 -259 100 -369
116 -106 16 -272 18 -368 4z"/>
</g>
</svg>
